<?xml version="1.0" standalone="no"?>
<!DOCTYPE svg PUBLIC "-//W3C//DTD SVG 20010904//EN"
 "http://www.w3.org/TR/2001/REC-SVG-20010904/DTD/svg10.dtd">
<svg version="1.0" xmlns="http://www.w3.org/2000/svg"
 width="1024.000000pt" height="1024.000000pt" viewBox="0 0 1024.000000 1024.000000"
 preserveAspectRatio="xMidYMid meet">

<g transform="translate(0.000000,1024.000000) scale(0.100000,-0.100000)"
fill="#000000" stroke="none">
<path d="M0 5120 l0 -5120 5120 0 5120 0 0 5120 0 5120 -5120 0 -5120 0 0
-5120z m5675 5036 c508 -57 1036 -196 1465 -384 1291 -565 2272 -1606 2745
-2912 162 -449 251 -873 286 -1365 15 -211 6 -693 -16 -895 -64 -600 -221
-1145 -484 -1685 -268 -551 -591 -998 -1032 -1430 -235 -230 -413 -377 -662
-549 -876 -603 -1901 -910 -2952 -883 -484 13 -886 74 -1318 202 -679 200
-1267 518 -1842 996 -135 113 -489 468 -606 609 -426 513 -733 1060 -933 1662
-165 495 -241 948 -253 1508 -10 480 35 902 142 1331 210 835 613 1576 1211
2223 310 336 753 688 1159 922 650 374 1415 607 2190 668 127 10 767 -3 900
-18z"/>
<path d="M5088 9462 l-108 -3 -132 -175 c-106 -140 -134 -171 -136 -152 -1 13
-6 88 -10 168 l-7 145 -90 -4 c-49 -2 -92 -5 -94 -7 -4 -4 31 -568 46 -743 l6
-74 91 7 c50 4 91 8 92 9 1 1 -2 60 -8 131 l-11 128 31 31 c17 17 33 29 35 26
2 -2 59 -73 128 -158 l124 -153 65 6 c36 3 89 6 118 6 l54 0 -43 53 c-44 53
-276 324 -312 364 l-19 22 59 73 c107 132 235 299 232 301 -2 1 -52 1 -111 -1z"/>
<path d="M5486 9419 c-3 -19 -22 -189 -41 -379 -19 -190 -36 -357 -38 -372 -4
-33 0 -34 106 -44 76 -6 77 -6 77 17 0 13 18 196 41 407 23 210 40 384 38 386
-2 2 -43 7 -91 11 l-87 7 -5 -33z"/>
<path d="M5900 9320 c-11 -39 -19 -74 -16 -78 3 -5 50 -19 106 -32 82 -19 100
-27 95 -39 -10 -25 -156 -624 -153 -627 6 -5 170 -45 174 -42 1 2 37 141 79
308 41 168 77 310 80 317 2 8 36 3 115 -17 79 -20 112 -25 115 -17 10 31 36
139 33 142 -2 1 -30 9 -63 17 -33 9 -161 41 -285 72 -124 32 -233 59 -242 62
-13 4 -21 -9 -38 -66z"/>
<path d="M3492 9180 c-150 -59 -275 -110 -278 -112 -7 -8 50 -148 61 -147 6 0
53 17 105 39 52 21 96 37 96 37 1 -1 54 -139 119 -307 64 -168 120 -308 124
-312 5 -6 155 44 168 56 1 1 -52 143 -117 316 -66 172 -119 315 -117 316 1 1
45 18 97 39 52 20 98 39 102 43 11 13 -53 142 -71 141 -9 -1 -139 -50 -289
-109z"/>
<path d="M6783 9015 c-108 -33 -205 -121 -261 -234 -35 -72 -37 -80 -37 -175
1 -136 25 -198 109 -282 121 -120 284 -162 437 -114 105 33 106 35 35 113
l-62 68 -33 -17 c-68 -34 -180 1 -244 76 -81 95 -72 226 24 334 67 77 191 100
280 53 54 -29 105 -94 120 -153 l11 -44 89 0 88 0 -6 38 c-32 214 -201 353
-426 351 -45 0 -101 -6 -124 -14z"/>
<path d="M2854 8860 c-93 -19 -187 -83 -232 -159 -23 -39 -27 -57 -27 -121 0
-82 13 -115 62 -164 62 -63 157 -75 300 -37 108 28 154 27 189 -3 97 -83 -72
-227 -187 -159 l-29 17 -60 -59 c-33 -33 -59 -64 -57 -69 2 -5 25 -21 52 -35
44 -23 62 -26 145 -26 86 1 101 4 161 33 116 56 183 152 184 262 0 86 -33 152
-99 197 -68 46 -119 51 -241 22 -55 -12 -123 -25 -151 -27 -46 -3 -53 -1 -73
24 -25 31 -27 61 -6 90 34 49 138 70 184 38 23 -17 24 -16 86 52 l63 69 -27
18 c-60 40 -149 54 -237 37z"/>
<path d="M7419 8323 c-139 -170 -256 -313 -261 -319 -7 -10 24 -39 123 -111
14 -10 30 5 114 108 53 65 101 122 106 125 5 3 61 -38 125 -91 l115 -96 -30
-37 c-16 -20 -64 -77 -105 -127 -42 -49 -76 -93 -76 -96 0 -13 130 -120 139
-115 15 10 516 616 516 625 0 4 -30 33 -66 63 l-65 56 -101 -123 -100 -124
-122 101 -121 101 47 56 c26 31 70 83 98 116 28 33 54 65 58 71 4 7 -21 35
-63 68 -38 31 -71 56 -74 56 -2 0 -118 -138 -257 -307z"/>
<path d="M2129 8297 c-335 -114 -405 -554 -122 -757 239 -171 585 -50 675 234
25 79 20 196 -12 279 -80 208 -324 318 -541 244z m237 -175 c107 -55 167 -198
134 -317 -16 -58 -78 -128 -132 -150 -123 -50 -255 3 -317 126 -91 182 31 380
225 365 28 -2 69 -13 90 -24z"/>
<path d="M5480 8070 l0 -150 -92 0 -91 0 6 -797 c4 -439 7 -826 7 -860 l0 -63
79 0 c73 0 79 -2 85 -22 3 -13 6 -112 6 -220 l0 -198 35 0 36 0 -4 201 c-3
111 -2 210 0 220 5 17 15 19 89 19 l84 0 0 693 c0 382 3 769 7 860 l6 167 -94
0 -95 0 3 150 3 150 -35 0 -35 0 0 -150z m179 -1010 l-4 -790 -142 0 -143 0 0
790 0 790 146 0 147 0 -4 -790z"/>
<path d="M8100 7670 c-173 -137 -315 -253 -315 -257 0 -10 298 -392 306 -393
3 0 36 23 72 50 l67 51 -100 127 c-55 70 -100 129 -100 132 0 9 102 83 115 84
9 1 139 -153 171 -202 3 -5 124 81 124 89 0 4 -38 54 -84 111 l-83 105 31 25
c17 13 47 36 66 51 l36 26 94 -119 94 -119 51 36 c100 72 107 45 -67 261 -84
105 -155 191 -158 191 -3 0 -147 -112 -320 -249z"/>
<path d="M4740 7530 l0 -200 -80 0 -80 0 0 -830 0 -830 80 0 80 0 1 -232 c1
-128 1 -239 0 -245 -1 -9 11 -13 35 -13 l37 0 -7 208 c-3 114 -3 223 2 242 l8
35 86 3 86 3 1 829 0 830 -95 0 -96 0 7 200 8 200 -37 0 -36 0 0 -200z m180
-1025 l0 -765 -135 0 -135 0 0 765 0 765 135 0 135 0 0 -765z"/>
<path d="M1467 7588 c-8 -13 -29 -47 -45 -77 l-31 -55 132 -73 c73 -41 136
-78 140 -82 6 -6 -118 -255 -139 -279 -1 -2 -63 29 -136 70 -73 40 -136 73
-140 73 -13 0 -89 -138 -81 -146 12 -12 685 -390 688 -387 14 19 87 149 84
152 -2 1 -62 36 -134 76 -71 40 -131 74 -132 75 -5 3 138 265 148 270 5 4 70
-28 145 -70 74 -43 137 -75 138 -74 2 2 24 36 49 76 l46 72 -317 177 c-174 98
-336 189 -359 202 l-42 23 -14 -23z"/>
<path d="M3600 7306 c0 -96 -3 -181 -6 -190 -5 -13 -22 -16 -85 -16 l-79 0 2
-892 3 -892 80 -1 80 0 3 -217 2 -218 30 0 30 0 2 218 3 217 83 0 82 0 0 893
0 892 -85 0 -85 0 0 190 0 190 -30 0 -30 0 0 -174z m30 -1916 l120 0 3 828 2
827 3 -832 2 -833 -130 0 -130 0 2 833 3 832 2 -827 3 -828 120 0z"/>
<path d="M8795 7174 c-60 -30 -224 -107 -362 -171 -139 -65 -253 -121 -253
-124 0 -4 17 -43 38 -88 l37 -81 233 114 c127 63 232 113 232 111 0 -2 -42
-69 -94 -148 -153 -233 -237 -379 -230 -400 13 -42 65 -147 72 -147 5 0 172
74 373 165 223 101 363 170 361 178 -6 27 -66 157 -72 157 -4 0 -107 -47 -229
-105 -122 -58 -223 -105 -225 -105 -2 0 33 62 79 138 45 75 117 199 159 274
l78 138 -27 53 c-53 105 -44 102 -170 41z"/>
<path d="M4194 7133 c-1 -49 -2 -121 -3 -160 l-1 -73 -75 0 -75 0 0 -750 0
-750 80 0 81 0 -3 -215 -3 -215 33 0 32 0 0 123 c0 68 3 165 6 215 l7 92 78 0
79 0 0 750 0 750 -85 0 -85 0 0 160 0 160 -32 0 -33 0 -1 -87z m166 -983 l0
-680 -130 0 -130 0 0 680 0 680 130 0 130 0 0 -680z"/>
<path d="M1112 6659 c-143 -81 -221 -233 -210 -407 12 -182 113 -308 289 -363
188 -59 388 12 481 171 125 212 67 468 -126 556 -54 25 -162 51 -172 42 -12
-13 -105 -351 -97 -358 7 -6 113 -30 133 -30 4 0 17 38 30 85 26 97 35 102 85
52 84 -84 36 -265 -88 -329 -31 -16 -59 -22 -108 -21 -162 1 -274 119 -254
267 9 69 36 117 96 169 l52 46 -19 72 c-11 40 -24 74 -29 76 -6 1 -34 -11 -63
-28z"/>
<path d="M8880 6121 c-595 -239 -1153 -469 -1480 -610 -122 -53 -176 -71 -209
-71 -44 0 -46 2 -165 124 -78 80 -149 142 -198 174 -200 129 -500 243 -800
305 -99 20 -111 20 -136 7 -59 -33 -34 -112 40 -124 81 -13 274 -65 393 -107
238 -83 455 -206 551 -312 26 -28 60 -80 77 -115 26 -57 29 -71 25 -136 -11
-170 -142 -304 -432 -441 -596 -284 -1586 -396 -2638 -300 -643 59 -1206 215
-1513 420 -191 126 -258 272 -189 408 59 115 228 253 418 342 113 53 308 121
461 161 60 15 117 36 127 46 23 23 23 70 0 91 -28 26 -76 21 -230 -23 -374
-106 -651 -247 -810 -414 -119 -126 -152 -213 -152 -403 0 -435 187 -929 505
-1334 83 -106 274 -291 390 -380 679 -518 1536 -691 2373 -480 582 147 1076
479 1445 969 204 271 287 441 392 794 22 76 32 94 73 135 27 27 68 55 93 65
24 9 183 71 353 138 170 66 566 217 880 334 618 232 798 301 865 335 55 29
123 97 152 153 33 64 37 167 10 239 -26 68 -99 142 -157 158 -83 23 -104 17
-514 -148z"/>
<path d="M7582 2883 l-82 -78 40 -160 c22 -88 42 -170 45 -181 4 -20 -9 -17
-175 40 l-180 61 -75 -75 c-41 -41 -71 -78 -67 -82 11 -11 149 -58 367 -124
l179 -55 86 -92 c47 -51 105 -113 130 -140 l45 -47 75 69 75 69 -40 44 c-23
23 -77 81 -121 128 l-79 85 -44 195 c-24 107 -53 242 -64 300 -11 58 -23 109
-27 113 -3 4 -43 -27 -88 -70z"/>
<path d="M2122 2588 c-166 -183 -302 -335 -302 -338 0 -3 32 -35 71 -70 l72
-64 41 45 c22 24 75 82 117 128 l76 85 26 -20 c14 -10 64 -52 111 -93 98 -84
88 -84 167 10 l38 45 -109 96 -109 96 62 70 c34 39 64 71 67 71 3 0 61 -51
130 -115 l125 -114 63 67 63 68 -38 34 c-21 19 -109 100 -197 180 -87 80 -161
147 -165 149 -4 1 -143 -147 -309 -330z"/>
<path d="M2812 2100 c-165 -146 -324 -287 -353 -313 -30 -25 -52 -47 -49 -49
3 -3 42 -30 86 -61 l82 -56 74 69 74 68 135 -80 c74 -44 136 -81 138 -83 2 -2
-4 -46 -13 -98 -9 -52 -16 -97 -16 -100 0 -6 190 -90 194 -85 3 3 116 833 123
909 l5 46 -90 50 -90 50 -300 -267z m258 -164 c-16 -87 -31 -160 -32 -161 -5
-5 -178 99 -178 106 0 8 233 219 237 215 1 -1 -11 -73 -27 -160z"/>
<path d="M6770 2235 c-55 -17 -370 -167 -370 -177 0 -5 365 -781 376 -800 3
-4 45 13 95 37 l89 45 -36 73 c-20 39 -52 104 -70 144 l-32 72 40 20 41 20 56
-43 c73 -55 167 -118 210 -141 l34 -17 98 48 c53 27 98 52 98 56 1 4 -76 50
-170 103 l-171 97 20 22 c29 31 59 95 67 143 12 75 -34 203 -91 255 -61 54
-186 73 -284 43z m123 -199 c36 -34 54 -96 37 -135 -13 -31 -76 -78 -143 -106
l-38 -16 -50 107 c-57 121 -60 109 35 151 69 30 126 30 159 -1z"/>
<path d="M3833 1965 c-297 -83 -442 -419 -297 -685 95 -174 308 -271 506 -229
72 16 208 88 208 112 0 2 -32 32 -71 67 l-70 62 -22 -20 c-71 -67 -233 -53
-315 28 -57 55 -74 94 -80 177 -6 89 8 143 53 205 71 97 197 134 303 88 58
-25 115 -83 134 -137 8 -23 18 -33 33 -32 27 0 164 25 169 30 3 2 -4 29 -15
59 -41 119 -136 215 -258 261 -73 28 -206 35 -278 14z"/>
<path d="M5790 1909 c-149 -26 -282 -128 -348 -266 -33 -71 -37 -87 -40 -178
-3 -83 0 -111 18 -165 51 -153 163 -262 314 -305 81 -24 229 -17 309 14 79 31
172 104 218 171 126 184 101 450 -57 604 -104 101 -268 151 -414 125z m197
-207 c55 -29 110 -95 128 -156 48 -159 -14 -315 -148 -371 -80 -33 -191 -13
-265 50 -79 66 -115 221 -77 334 22 67 90 135 153 156 62 20 156 14 209 -13z"/>
<path d="M4546 1751 c-3 -45 -4 -86 -1 -92 4 -5 61 -9 127 -9 l121 0 -6 -172
c-4 -95 -10 -257 -13 -359 l-7 -186 24 -6 c13 -4 58 -7 100 -7 l76 0 7 208 c3
114 9 276 13 361 l6 154 124 -7 123 -7 0 38 c0 21 3 61 6 89 l6 51 -176 6
c-97 4 -254 10 -349 13 l-174 7 -7 -82z"/>
</g>
</svg>
